HIERARCHY
ROOT Hips
{
	OFFSET 0.000000 0.000000 0.000000 
	CHANNELS 6 Xposition Yposition Zposition Zrotation Yrotation Xrotation
	JOINT LeftUpLeg
	{
		OFFSET 1.363060 -1.794630 0.839290 
		CHANNELS 3 Zrotation Yrotation Xrotation
		JOINT LeftLeg
		{
			OFFSET 2.448110 -6.726130 0.000000 
			CHANNELS 3 Zrotation Yrotation Xrotation
			JOINT LeftFoot
			{
				OFFSET 2.562200 -7.039590 0.000000 
				CHANNELS 3 Zrotation Yrotation Xrotation
				JOINT LeftToeBase
				{
					OFFSET 0.157640 -0.433110 2.322550 
					CHANNELS 3 Zrotation Yrotation Xrotation
					End Site
					{
						OFFSET 0.000000 0.000000 0.000000 
					}
				}
			}
		}
	}
	JOINT RightUpLeg
	{
		OFFSET -1.305520 -1.794630 0.839290 
		CHANNELS 3 Zrotation Yrotation Xrotation
		JOINT RightLeg
		{
			OFFSET -2.542530 -6.985550 0.000000 
			CHANNELS 3 Zrotation Yrotation Xrotation
			JOINT RightFoot
			{
				OFFSET -2.568260 -7.056230 0.000000 
				CHANNELS 3 Zrotation Yrotation Xrotation
				JOINT RightToeBase
				{
					OFFSET -0.164730 -0.452590 2.363150 
					CHANNELS 3 Zrotation Yrotation Xrotation
					End Site
					{
						OFFSET 0.000000 0.000000 0.000000 
					}
				}
			}
		}
	}
	JOINT Spine
	{
		OFFSET 0.028270 2.035590 -0.193380 
		CHANNELS 3 Zrotation Yrotation Xrotation
		JOINT Spine1
		{
			OFFSET 0.056720 2.048850 -0.042750 
			CHANNELS 3 Zrotation Yrotation Xrotation
			JOINT Neck1
			{
				OFFSET -0.054170 1.746240 0.172020 
				CHANNELS 3 Zrotation Yrotation Xrotation
				JOINT Head
				{
					OFFSET 0.104070 1.761360 -0.123970 
					CHANNELS 3 Zrotation Yrotation Xrotation
					End Site
					{
						OFFSET 0.000000 0.000000 0.000000 
					}
				}
			}
			JOINT LeftArm
			{
				OFFSET 3.362410 1.200890 -0.311210 
				CHANNELS 3 Zrotation Yrotation Xrotation
				JOINT LeftForeArm
				{
					OFFSET 4.983000 -0.000000 -0.000000 
					CHANNELS 3 Zrotation Yrotation Xrotation
					JOINT LeftHand
					{
						OFFSET 3.483560 -0.000000 -0.000000 
						CHANNELS 3 Zrotation Yrotation Xrotation
						JOINT LeftHandIndex1
						{
							OFFSET 0.715260 -0.000000 -0.000000 
							CHANNELS 3 Zrotation Yrotation Xrotation
							End Site
							{
								OFFSET 0.000000 0.000000 0.000000 
							}
						}
					}
				}
			}
			JOINT RightArm
			{
				OFFSET -3.136600 1.374050 -0.404650 
				CHANNELS 3 Zrotation Yrotation Xrotation
				JOINT RightForeArm
				{
					OFFSET -5.241900 -0.000000 -0.000000 
					CHANNELS 3 Zrotation Yrotation Xrotation
					JOINT RightHand
					{
						OFFSET -3.444170 -0.000000 -0.000000 
						CHANNELS 3 Zrotation Yrotation Xrotation
						JOINT RightHandIndex1
						{
							OFFSET -0.622530 -0.000000 -0.000000 
							CHANNELS 3 Zrotation Yrotation Xrotation
							End Site
							{
								OFFSET 0.000000 0.000000 0.000000 
							}
						}
					}
				}
			}
		}
	}
}
MOTION
Frames: 13
Frame Time: 0.041667
33.290310 16.371195 4.522899 118.934581 82.012718 116.007283 -12.883837 1.235367 -34.944822 2.381078 12.948161 33.647282 -1.258504 9.319256 6.492416 0.016200 -0.820500 -2.255100 20.348326 -2.550626 -16.971723 -9.258801 -19.260311 59.355107 -1.845096 -6.417114 -32.384898 -0.316100 -3.613900 9.992800 0.168163 2.123086 2.107256 -2.887372 1.959000 0.890133 -2.583830 11.763283 14.992710 -2.461000 4.377300 16.779600 -73.606174 1.079810 35.245479 11.860049 -26.415268 -3.601077 -0.595784 0.072241 -15.369376 -7.125000 0.000000 0.000000 52.981094 8.012910 18.532381 -17.201073 28.829788 -6.208970 1.413585 1.326746 -19.747018 7.125000 0.000000 0.000000 
33.386510 16.362421 4.498373 117.809971 82.649085 114.542965 -11.859280 0.780837 -33.703932 1.881768 12.162299 31.126224 -1.143505 9.397165 8.175585 0.034700 -1.201800 -3.304300 20.954530 -2.637644 -16.104771 -9.166489 -19.237501 59.081035 -1.847105 -6.554577 -32.529194 -0.240700 -3.157200 8.716600 0.209453 2.269844 2.178149 -2.966935 2.040632 1.217850 -2.831734 11.934429 15.060358 -2.623300 4.455100 16.797800 -73.730339 1.108807 35.188481 11.871242 -26.448568 -3.607640 -0.582410 0.070908 -15.155787 -7.125000 0.000000 0.000000 53.022519 8.255816 18.711028 -17.249940 28.883856 -6.220174 1.416791 1.316546 -19.850490 7.125000 0.000000 0.000000 
33.486728 16.349841 4.465919 115.075168 83.151109 111.513413 -10.972911 0.371299 -32.697666 1.516535 11.489420 29.002547 -1.199535 10.350084 9.917622 0.053900 -1.497900 -4.120000 21.311954 -2.618700 -15.232764 -9.093776 -19.210872 58.858072 -1.880617 -6.469017 -32.677552 -0.207600 -2.933400 8.093400 0.254287 2.414006 2.175438 -2.895529 2.091881 1.279335 -3.042920 12.170069 15.219599 -2.754200 4.557900 16.891000 -74.008189 1.323950 34.911221 11.831075 -26.431435 -3.600770 -0.568761 0.083476 -14.700138 -7.125000 0.000000 0.000000 52.975943 8.279983 19.177351 -17.305571 28.950281 -6.229160 1.419619 1.311951 -20.193635 7.125000 0.000000 0.000000 
33.583457 16.336626 4.433464 111.748448 83.392012 107.946270 -10.577358 0.363305 -31.890892 1.265160 10.947445 27.268943 -1.380172 12.065971 11.866178 0.090900 -1.944100 -5.351200 21.385281 -2.605108 -14.402197 -9.041077 -19.178599 58.686275 -1.931711 -6.276539 -32.838802 -0.215800 -2.990900 8.253500 0.242095 2.510553 2.252196 -2.898294 2.138396 1.651308 -3.007862 12.244685 15.336390 -2.694100 4.573000 16.946100 -74.066793 1.056131 34.920555 11.771214 -26.351912 -3.572294 -0.559729 0.080029 -14.471323 -7.125000 0.000000 0.000000 53.000401 8.637235 19.366596 -17.298148 28.938134 -6.212242 1.421620 1.307989 -20.504999 7.125000 0.000000 0.000000 
33.673420 16.323835 4.396676 107.190144 83.657388 103.365126 -10.198039 0.548295 -31.441135 1.111524 10.494576 25.798318 -1.785957 14.740999 13.504509 0.089600 -1.930700 -5.314100 21.446703 -2.360035 -13.914828 -9.003326 -19.167642 58.571307 -1.954955 -6.178229 -32.906390 -0.212900 -2.970500 8.196700 0.223978 2.686865 2.216035 -2.914260 2.206201 1.710011 -2.849466 12.223877 15.411743 -2.567800 4.570400 16.880600 -74.083822 1.067954 35.005714 11.808035 -26.395113 -3.580690 -0.548879 0.060511 -14.419381 -7.125000 0.000000 0.000000 53.154024 8.626624 19.512081 -17.421449 29.082902 -6.277081 1.419495 1.316813 -20.598303 7.125000 0.000000 0.000000 
33.779663 16.316435 4.355024 104.835606 83.854533 100.788780 -9.934779 0.719308 -30.844929 1.010797 10.146380 24.616255 -2.257777 17.451083 14.550703 0.083200 -1.860700 -5.120900 21.470949 -2.544864 -13.136785 -8.957649 -19.121377 58.410002 -2.000965 -6.058158 -33.088129 -0.203100 -2.902100 8.006300 0.220585 2.698755 2.198394 -2.935280 2.204217 1.735812 -2.892939 12.332758 15.503608 -2.604400 4.638900 16.868500 -74.052260 1.088848 34.969153 11.857838 -26.462309 -3.603032 -0.540986 0.056231 -14.370569 -7.125000 0.000000 0.000000 53.373889 8.469429 19.796893 -17.743391 29.427826 -6.422423 1.415416 1.307880 -20.721886 7.125000 0.000000 0.000000 
33.879564 16.303538 4.308087 100.441212 84.062729 96.207922 -9.608167 0.951996 -30.291765 0.957909 9.866135 23.678201 -2.856086 20.230305 14.860486 0.051000 -1.457300 -4.007900 21.497781 -2.435196 -12.475267 -8.921233 -19.097266 58.291880 -2.027451 -6.012965 -33.214043 -0.182500 -2.751600 7.587900 0.214338 2.765645 2.179060 -2.956573 2.224030 1.667196 -3.043899 12.598135 15.637786 -2.694800 4.758600 16.977200 -74.013776 1.031478 34.947693 11.950092 -26.569473 -3.641403 -0.536790 0.052098 -14.385204 -7.125000 0.000000 0.000000 53.533515 8.423734 20.144491 -18.050339 29.725619 -6.536036 1.410857 1.279425 -20.862395 7.125000 0.000000 0.000000 
33.977032 16.289583 4.258718 95.873957 84.212610 91.451089 -9.279002 1.136261 -29.788125 0.932535 9.664757 23.007633 -3.388812 22.516747 14.924557 0.032100 -1.155800 -3.177700 21.514857 -2.288531 -11.772245 -8.884105 -19.073041 58.172210 -2.063103 -5.966114 -33.394886 -0.159400 -2.572700 7.091300 0.205332 2.805146 2.248860 -2.952222 2.238505 1.899936 -3.064310 12.845027 15.712693 -2.659900 4.849600 17.037600 -73.946183 0.711354 34.977043 12.031360 -26.654101 -3.675736 -0.538059 0.062065 -14.519999 -7.125000 0.000000 0.000000 53.564817 8.683642 20.465082 -18.278112 29.944170 -6.629765 1.408078 1.281181 -20.999818 7.125000 0.000000 0.000000 
34.070379 16.271400 4.206284 92.035128 84.415613 87.515253 -8.913274 1.349911 -29.530795 0.926820 9.524479 22.593537 -3.625118 23.697843 15.316353 0.071200 -1.720900 -4.734900 21.650077 -2.124196 -11.183771 -8.859413 -19.064607 58.101639 -2.082080 -6.010610 -33.549708 -0.146600 -2.467300 6.798900 0.218843 2.834959 2.314970 -2.894794 2.242887 2.147515 -3.105314 12.978128 15.716903 -2.659700 4.903000 17.001200 -73.857690 0.370238 35.082728 12.082424 -26.709418 -3.701796 -0.545930 0.095230 -14.820370 -7.125000 0.000000 0.000000 53.572168 8.765924 20.796822 -18.619803 30.292359 -6.792352 1.403444 1.292566 -21.202893 7.125000 0.000000 0.000000 
34.161188 16.252583 4.154906 88.762233 84.751196 84.196954 -8.480023 1.681504 -29.482215 0.954473 9.450167 22.454244 -3.669830 24.092753 15.806750 0.139300 -2.405900 -6.628700 21.985402 -1.964888 -10.721697 -8.839362 -19.075187 58.061680 -2.072385 -6.207210 -33.658629 -0.133500 -2.354900 6.487400 0.232183 2.879279 2.397781 -2.953660 2.271795 2.447029 -3.233285 13.026021 15.667155 -2.717400 4.910400 16.952900 -73.658417 -0.151103 35.342884 12.244046 -26.872407 -3.762514 -0.550197 0.098540 -15.196229 -7.125000 0.000000 0.000000 53.648010 8.808014 20.937775 -19.063732 30.733072 -7.004107 1.396025 1.288101 -21.346066 7.125000 0.000000 0.000000 
34.258868 16.241695 4.098137 85.832913 84.686532 81.143241 -8.524128 2.145924 -29.529602 1.019379 9.508013 22.673427 -3.673835 24.302511 16.189603 0.178200 -2.719200 -7.497800 21.784574 -1.993945 -10.146622 -8.844542 -19.048413 58.060736 -2.105384 -6.160831 -33.809096 -0.105700 -2.096700 5.772900 0.225696 2.893900 2.397453 -2.846145 2.258536 2.364208 -3.329122 13.162765 15.595535 -2.730400 4.952400 16.882800 -73.585816 -0.298695 35.443959 12.554849 -27.223866 -3.886039 -0.545943 0.073930 -15.424615 -7.125000 0.000000 0.000000 53.663900 8.616053 21.291025 -19.440836 31.108382 -7.182334 1.387069 1.292086 -21.537994 7.125000 0.000000 0.000000 
34.359614 16.229009 4.033440 82.448148 84.463337 77.582652 -8.786050 2.840540 -29.723309 1.141532 9.681527 23.246220 -3.566854 24.263066 16.884537 0.211700 -2.961900 -8.172800 21.394028 -1.979152 -9.482586 -8.864076 -19.015611 58.095655 -2.144438 -6.098244 -33.974264 -0.071400 -1.724000 4.743400 0.185816 2.899273 2.432146 -2.800330 2.252087 2.352414 -3.390714 13.289304 15.477199 -2.731600 5.000800 16.773100 -73.445062 -0.481627 35.490526 12.815162 -27.513955 -3.994373 -0.547793 0.060060 -15.524579 -7.125000 0.000000 0.000000 53.733492 8.501342 21.556275 -19.720568 31.389195 -7.317884 1.383146 1.293255 -21.642776 7.125000 0.000000 0.000000 
34.455180 16.209874 3.964091 78.680396 84.642794 73.692079 -8.713974 3.642242 -30.134976 1.339154 9.933014 24.144873 -3.316819 23.837540 17.987019 0.268200 -3.331400 -9.202900 21.513796 -1.875222 -8.965524 -8.877348 -19.019857 58.145990 -2.161350 -6.178874 -34.137897 -0.052400 -1.476500 4.061100 0.186108 2.873710 2.492704 -2.846360 2.242403 2.406004 -3.476450 13.461223 15.391877 -2.740900 5.046000 16.811100 -73.274335 -1.006368 35.494194 12.874925 -27.541733 -4.018841 -0.558930 0.073308 -15.733959 -7.125000 0.000000 0.000000 53.759511 8.551250 21.855100 -20.107606 31.754766 -7.508349 1.379095 1.303527 -21.731529 7.125000 0.000000 0.000000 
